<mxfile host="65bd71144e" modified="2021-02-05T03:29:15.736Z" agent="5.0 (Windows NT 10.0; Win64; x64) AppleWebKit/537.36 (KHTML, like Gecko) Code/1.53.0 Chrome/87.0.4280.141 Electron/11.2.1 Safari/537.36" etag="XMpFKQigjYH-iYUM44iB" version="13.10.0" type="embed">
    <diagram id="60L1b5KzctDde3di3bZ7" name="페이지-1">
        <mxGraphModel dx="1133" dy="1172" grid="1" gridSize="10" guides="1" tooltips="1" connect="1" arrows="1" fold="1" page="1" pageScale="1" pageWidth="1654" pageHeight="1169" math="0" shadow="0">
            <root>
                <mxCell id="0"/>
                <mxCell id="1" parent="0"/>
                <mxCell id="12" value="JoyStick" style="whiteSpace=wrap;html=1;aspect=fixed;" parent="1" vertex="1">
                    <mxGeometry x="500" y="760" width="120" height="120" as="geometry"/>
                </mxCell>
                <mxCell id="14" value="JoyStick" style="whiteSpace=wrap;html=1;aspect=fixed;" parent="1" vertex="1">
                    <mxGeometry x="820" y="760" width="120" height="120" as="geometry"/>
                </mxCell>
                <mxCell id="15" value="Button&lt;br&gt;Stop" style="whiteSpace=wrap;html=1;aspect=fixed;" parent="1" vertex="1">
                    <mxGeometry x="690.5" y="720" width="60" height="60" as="geometry"/>
                </mxCell>
                <mxCell id="18" value="TX LED" style="ellipse;whiteSpace=wrap;html=1;aspect=fixed;" parent="1" vertex="1">
                    <mxGeometry x="520" y="200" width="80" height="80" as="geometry"/>
                </mxCell>
                <mxCell id="19" value="RX LED" style="ellipse;whiteSpace=wrap;html=1;aspect=fixed;" parent="1" vertex="1">
                    <mxGeometry x="840" y="200" width="80" height="80" as="geometry"/>
                </mxCell>
                <mxCell id="20" value="Button&lt;br&gt;HV mode&lt;br&gt;on/off" style="whiteSpace=wrap;html=1;aspect=fixed;" parent="1" vertex="1">
                    <mxGeometry x="690.5" y="800" width="60" height="60" as="geometry"/>
                </mxCell>
                <mxCell id="21" value="Button&lt;br&gt;Stop" style="whiteSpace=wrap;html=1;aspect=fixed;" parent="1" vertex="1">
                    <mxGeometry x="690.5" y="880" width="60" height="60" as="geometry"/>
                </mxCell>
                <mxCell id="22" value="&lt;b&gt;&lt;font style=&quot;font-size: 16px&quot;&gt;nRF24L01+&lt;/font&gt;&lt;br&gt;&lt;/b&gt;&lt;span style=&quot;font-size: 10px&quot;&gt;NRF24L01 + PA + LNA&lt;br&gt;&lt;/span&gt;&lt;font style=&quot;font-size: 10px&quot; color=&quot;#9933ff&quot;&gt;250kbps ~ 2Mbps&lt;/font&gt;&lt;span style=&quot;font-size: 10px&quot;&gt;&lt;br&gt;&lt;/span&gt;" style="rounded=0;whiteSpace=wrap;html=1;" vertex="1" parent="1">
                    <mxGeometry x="660" y="260" width="120" height="60" as="geometry"/>
                </mxCell>
                <mxCell id="23" value="" style="verticalLabelPosition=bottom;shadow=0;dashed=0;align=center;html=1;verticalAlign=top;shape=mxgraph.electrical.radio.aerial_-_antenna_2;rotation=0;" vertex="1" parent="1">
                    <mxGeometry x="705.75" y="180" width="29.5" height="30" as="geometry"/>
                </mxCell>
                <mxCell id="24" value="&lt;b&gt;&lt;font style=&quot;font-size: 12px&quot;&gt;ANT&lt;/font&gt;&lt;/b&gt;" style="text;html=1;strokeColor=none;fillColor=none;align=center;verticalAlign=middle;whiteSpace=wrap;rounded=0;" vertex="1" parent="1">
                    <mxGeometry x="680" y="160" width="80" height="20" as="geometry"/>
                </mxCell>
                <mxCell id="25" value="&lt;font color=&quot;#ff8000&quot; style=&quot;font-size: 24px&quot;&gt;&lt;b&gt;User&lt;br&gt;Control Signal&lt;/b&gt;&lt;/font&gt;" style="text;html=1;strokeColor=none;fillColor=none;align=center;verticalAlign=middle;whiteSpace=wrap;rounded=0;shadow=0;glass=0;sketch=0;fontSize=14;fontColor=#000000;" vertex="1" parent="1">
                    <mxGeometry x="620.5" y="10" width="200" height="60" as="geometry"/>
                </mxCell>
                <mxCell id="26" value="2.4GHz" style="text;html=1;strokeColor=none;fillColor=none;align=center;verticalAlign=middle;whiteSpace=wrap;rounded=0;" vertex="1" parent="1">
                    <mxGeometry x="720" y="100" width="53" height="20" as="geometry"/>
                </mxCell>
                <mxCell id="27" value="" style="endArrow=classic;html=1;strokeColor=#000000;strokeWidth=1;fillColor=#FF0000;" edge="1" parent="1">
                    <mxGeometry width="50" height="50" relative="1" as="geometry">
                        <mxPoint x="720" y="80" as="sourcePoint"/>
                        <mxPoint x="720" y="160" as="targetPoint"/>
                    </mxGeometry>
                </mxCell>
                <mxCell id="28" value="" style="endArrow=classic;html=1;strokeColor=#000000;strokeWidth=1;fillColor=#FF0000;exitX=0.5;exitY=1;exitDx=0;exitDy=0;exitPerimeter=0;entryX=0.5;entryY=0;entryDx=0;entryDy=0;" edge="1" parent="1" source="23" target="22">
                    <mxGeometry width="50" height="50" relative="1" as="geometry">
                        <mxPoint x="650" y="190" as="sourcePoint"/>
                        <mxPoint x="700" y="140" as="targetPoint"/>
                    </mxGeometry>
                </mxCell>
                <mxCell id="29" value="" style="endArrow=none;dashed=1;html=1;dashPattern=1 3;strokeWidth=2;" edge="1" parent="1">
                    <mxGeometry width="50" height="50" relative="1" as="geometry">
                        <mxPoint x="980" y="119.99999999999977" as="sourcePoint"/>
                        <mxPoint x="400" y="119.99999999999977" as="targetPoint"/>
                    </mxGeometry>
                </mxCell>
                <mxCell id="30" value="" style="rounded=0;whiteSpace=wrap;html=1;" vertex="1" parent="1">
                    <mxGeometry x="600" y="400" width="240" height="240" as="geometry"/>
                </mxCell>
                <mxCell id="31" value="" style="group" vertex="1" connectable="0" parent="1">
                    <mxGeometry x="660" y="480" width="120" height="120" as="geometry"/>
                </mxCell>
                <mxCell id="32" value="&lt;font style=&quot;font-size: 14px&quot;&gt;&lt;b&gt;Cortex-M3&lt;br&gt;STM32F103&lt;br&gt;RBT6&lt;br&gt;&lt;br&gt;&lt;/b&gt;&lt;/font&gt;" style="whiteSpace=wrap;html=1;" vertex="1" parent="31">
                    <mxGeometry width="120" height="120" as="geometry"/>
                </mxCell>
                <mxCell id="33" value="&lt;font color=&quot;#9933ff&quot; style=&quot;font-size: 8px&quot;&gt;&amp;nbsp;72MHz / 64-LQFP&lt;br&gt;128KB Flash / 20KB sram&lt;br&gt;&lt;/font&gt;" style="text;html=1;strokeColor=none;fillColor=none;align=center;verticalAlign=middle;whiteSpace=wrap;rounded=0;" vertex="1" parent="31">
                    <mxGeometry y="80" width="120" height="30" as="geometry"/>
                </mxCell>
                <mxCell id="34" value="Nucleo-64&lt;br&gt;STM32F103RB" style="text;html=1;strokeColor=none;fillColor=none;align=center;verticalAlign=middle;whiteSpace=wrap;rounded=0;" vertex="1" parent="1">
                    <mxGeometry x="600" y="400" width="100" height="40" as="geometry"/>
                </mxCell>
                <mxCell id="35" value="&lt;font style=&quot;font-size: 10px&quot;&gt;Embedded&lt;/font&gt;&lt;br&gt;&lt;b&gt;ST-LINK/V2&lt;/b&gt;" style="rounded=0;whiteSpace=wrap;html=1;" vertex="1" parent="1">
                    <mxGeometry x="679.5" y="440" width="80.5" height="40" as="geometry"/>
                </mxCell>
            </root>
        </mxGraphModel>
    </diagram>
</mxfile>